<?xml version="1.0" standalone="no"?>
<!DOCTYPE svg PUBLIC "-//W3C//DTD SVG 20010904//EN"
 "http://www.w3.org/TR/2001/REC-SVG-20010904/DTD/svg10.dtd">
<svg version="1.0" xmlns="http://www.w3.org/2000/svg"
 width="260.000000pt" height="260.000000pt" viewBox="0 0 260.000000 260.000000"
 preserveAspectRatio="xMidYMid meet">
<metadata>
Created by potrace 1.11, written by Peter Selinger 2001-2013
</metadata>
<g transform="translate(0.000000,260.000000) scale(0.100000,-0.100000)"
fill="#000000" stroke="none">
<path d="M1964 2301 c-43 -11 -87 -46 -138 -110 -79 -101 -106 -179 -154 -440
l-17 -95 -54 -13 c-49 -13 -145 -71 -210 -127 -34 -30 -64 -104 -96 -238 -28
-117 -28 -118 -57 -118 -16 0 -42 -7 -58 -15 -16 -8 -31 -11 -34 -7 -3 5 13
60 35 123 37 105 50 164 66 292 5 41 2 52 -17 72 -50 53 -110 40 -201 -43
l-56 -51 -20 49 c-24 56 -69 90 -120 90 -29 0 -40 -9 -90 -72 -32 -39 -75 -90
-96 -112 l-38 -41 6 92 c6 84 5 93 -14 112 -12 12 -29 21 -39 21 -32 0 -105
-47 -210 -136 -21 -17 -45 -34 -55 -37 -26 -10 -54 -74 -41 -95 17 -27 60 -38
96 -24 18 6 34 9 37 7 8 -9 -30 -165 -65 -266 -39 -112 -40 -124 -18 -179 25
-63 71 -77 131 -41 35 22 94 131 97 179 1 16 6 35 12 43 6 8 31 51 54 97 42
79 101 154 107 135 2 -5 -6 -35 -17 -68 -11 -32 -20 -68 -20 -81 0 -12 -14
-58 -32 -101 -17 -43 -33 -99 -36 -124 -4 -41 -1 -48 23 -67 40 -32 93 -44
124 -29 36 17 63 70 116 231 52 156 91 236 113 236 20 0 9 -81 -24 -168 -55
-147 -64 -177 -64 -217 0 -27 8 -54 23 -76 20 -30 28 -34 74 -37 l52 -3 103
100 c57 56 104 101 105 101 2 0 3 -18 3 -41 0 -55 25 -104 65 -129 56 -35 74
-28 162 61 l81 82 6 -54 c12 -93 17 -107 41 -123 22 -15 28 -13 95 22 80 42
79 40 156 137 31 39 58 72 60 74 2 2 24 -15 50 -38 35 -30 55 -41 80 -41 18 0
35 -4 38 -8 11 -19 -20 -102 -44 -118 -14 -9 -29 -22 -35 -28 -21 -23 -91 -72
-126 -87 -148 -68 -249 -196 -249 -320 0 -59 9 -76 80 -150 60 -63 96 -79 175
-79 98 1 196 15 237 34 55 26 173 131 188 166 9 22 11 57 7 118 -7 95 -21 153
-62 251 -39 92 -33 180 18 285 21 41 37 84 37 95 0 11 14 75 30 143 49 200 38
294 -39 345 -50 34 -107 31 -162 -8 -95 -68 -122 -108 -198 -300 -21 -53 -38
-76 -81 -113 l-55 -47 -6 34 c-6 39 14 213 37 327 9 41 20 100 26 130 5 30 20
80 33 110 13 30 29 75 36 100 6 24 22 66 35 91 23 46 24 47 62 42 53 -7 125
25 151 68 31 50 37 112 16 164 -9 25 -20 47 -24 49 -14 9 -177 15 -207 7z
m-343 -918 c-23 -105 -86 -195 -126 -179 -31 11 -13 124 30 186 29 41 84 75
99 60 6 -6 4 -32 -3 -67z m553 -11 c4 -11 -3 -50 -15 -87 -17 -57 -23 -66 -31
-51 -17 30 10 156 33 156 4 0 10 -8 13 -18z m-88 -717 c7 -19 14 -62 14 -96 0
-56 -3 -64 -34 -95 -29 -29 -38 -33 -67 -27 -52 10 -99 32 -106 49 -9 23 25
88 68 130 21 21 39 44 39 50 0 7 8 15 18 17 42 11 53 6 68 -28z"/>
</g>
</svg>
